<?xml version="1.0" encoding="UTF-8" standalone="no"?>
<!-- Created with Inkscape (http://www.inkscape.org/) -->

<svg
   xmlns:dc="http://purl.org/dc/elements/1.1/"
   xmlns:cc="http://creativecommons.org/ns#"
   xmlns:rdf="http://www.w3.org/1999/02/22-rdf-syntax-ns#"
   xmlns:svg="http://www.w3.org/2000/svg"
   xmlns="http://www.w3.org/2000/svg"
   xmlns:sodipodi="http://sodipodi.sourceforge.net/DTD/sodipodi-0.dtd"
   xmlns:inkscape="http://www.inkscape.org/namespaces/inkscape"
   width="744.09448819"
   height="1052.3622047"
   id="svg2"
   version="1.1"
   inkscape:version="0.48.4 r9939"
   sodipodi:docname="Nytt dokument 1">
  <defs
     id="defs4" />
  <sodipodi:namedview
     id="base"
     pagecolor="#ffffff"
     bordercolor="#666666"
     borderopacity="1.0"
     inkscape:pageopacity="0.0"
     inkscape:pageshadow="2"
     inkscape:zoom="3.2621723"
     inkscape:cx="40"
     inkscape:cy="811.5"
     inkscape:document-units="px"
     inkscape:current-layer="layer1"
     showgrid="false"
     inkscape:window-width="1920"
     inkscape:window-height="1025"
     inkscape:window-x="0"
     inkscape:window-y="27"
     inkscape:window-maximized="1" />
  <metadata
     id="metadata7">
    <rdf:RDF>
      <cc:Work
         rdf:about="">
        <dc:format>image/svg+xml</dc:format>
        <dc:type
           rdf:resource="http://purl.org/dc/dcmitype/StillImage" />
        <dc:title></dc:title>
      </cc:Work>
    </rdf:RDF>
  </metadata>
  <g
     inkscape:label="Layer 1"
     inkscape:groupmode="layer"
     id="layer1">
    <rect
       style="fill:#333333;fill-opacity:1;stroke:#eeeeec;stroke-opacity:1"
       id="rect3041"
       width="353"
       height="210"
       x="-9.25"
       y="202.11218"
       rx="4.2857141"
       ry="4.2857141" />
    <g
       id="g3901"
       inkscape:export-filename="/home/david/Projekt/kiss/cordova/www/img/menu.png"
       inkscape:export-xdpi="189"
       inkscape:export-ydpi="189">
      <path
         id="rect2985"
         d="m 30.605775,229.30724 37.89559,0 c 2.374285,0 4.285714,1.91142 4.285714,4.28571 l 0,37.89559 c 0,2.37429 -1.911429,4.28571 -4.285714,4.28571 l -37.89559,0 c -2.374286,0 -4.285714,-1.91142 -4.285714,-4.28571 l 0,-37.89559 c 0,-2.37429 1.911428,-4.28571 4.285714,-4.28571 z"
         style="fill:#739293;fill-opacity:1;stroke:none;stroke-opacity:1"
         inkscape:connector-curvature="0" />
      <path
         style="fill:#333333;fill-opacity:1;stroke:none;stroke-opacity:1"
         d="m 32.678569,235.21931 33.750002,0 c 0.692499,0 1.249999,0.9159 1.249999,2.05358 0,1.13767 -0.5575,2.05357 -1.249999,2.05357 l -33.750002,0 c -0.6925,0 -1.249999,-0.9159 -1.249999,-2.05357 0,-1.13768 0.557499,-2.05358 1.249999,-2.05358 z"
         id="rect2989"
         inkscape:connector-curvature="0" />
      <path
         style="fill:#333333;fill-opacity:1;stroke:none;stroke-opacity:1"
         d="m 32.678569,242.85326 33.750002,0 c 0.692499,0 1.249999,0.91589 1.249999,2.05357 0,1.13768 -0.5575,2.05357 -1.249999,2.05357 l -33.750002,0 c -0.6925,0 -1.249999,-0.91589 -1.249999,-2.05357 0,-1.13768 0.557499,-2.05357 1.249999,-2.05357 z"
         id="rect2991"
         inkscape:connector-curvature="0" />
      <path
         style="fill:#333333;fill-opacity:1;stroke:none;stroke-opacity:1"
         d="m 32.678569,250.48723 33.750002,0 c 0.692499,0 1.249999,0.91589 1.249999,2.05357 0,1.13768 -0.5575,2.05357 -1.249999,2.05357 l -33.750002,0 c -0.6925,0 -1.249999,-0.91589 -1.249999,-2.05357 0,-1.13768 0.557499,-2.05357 1.249999,-2.05357 z"
         id="rect2993"
         inkscape:connector-curvature="0" />
      <path
         style="fill:#333333;fill-opacity:1;stroke:none;stroke-opacity:1"
         d="m 32.678569,258.12112 33.750002,0 c 0.692499,0 1.249999,0.9159 1.249999,2.05358 0,1.13767 -0.5575,2.05357 -1.249999,2.05357 l -33.750002,0 c -0.6925,0 -1.249999,-0.9159 -1.249999,-2.05357 0,-1.13768 0.557499,-2.05358 1.249999,-2.05358 z"
         id="rect2995"
         inkscape:connector-curvature="0" />
      <path
         style="fill:#333333;fill-opacity:1;stroke:none;stroke-opacity:1"
         d="m 32.678569,265.75504 33.750002,0 c 0.692499,0 1.249999,0.91589 1.249999,2.05357 0,1.13768 -0.5575,2.05357 -1.249999,2.05357 l -33.750002,0 c -0.6925,0 -1.249999,-0.91589 -1.249999,-2.05357 0,-1.13768 0.557499,-2.05357 1.249999,-2.05357 z"
         id="rect2997"
         inkscape:connector-curvature="0" />
    </g>
    <g
       id="g3875" />
    <path
       id="path3851"
       style="fill:#739293;stroke:#3f3f3f;stroke-opacity:1;fill-opacity:1"
       d="m 99.178569,266.25504 33.750001,0 c 0.6925,0 1.25,0.91589 1.25,2.05357 0,1.13768 -0.5575,2.05357 -1.25,2.05357 l -33.750001,0 c -0.6925,0 -1.249999,-0.91589 -1.249999,-2.05357 0,-1.13768 0.557499,-2.05357 1.249999,-2.05357 z m 0,-7.63392 33.750001,0 c 0.6925,0 1.25,0.9159 1.25,2.05358 0,1.13767 -0.5575,2.05357 -1.25,2.05357 l -33.750001,0 c -0.6925,0 -1.249999,-0.9159 -1.249999,-2.05357 0,-1.13768 0.557499,-2.05358 1.249999,-2.05358 z m 0,-7.63389 33.750001,0 c 0.6925,0 1.25,0.91589 1.25,2.05357 0,1.13768 -0.5575,2.05357 -1.25,2.05357 l -33.750001,0 c -0.6925,0 -1.249999,-0.91589 -1.249999,-2.05357 0,-1.13768 0.557499,-2.05357 1.249999,-2.05357 z m 0,-7.63397 33.750001,0 c 0.6925,0 1.25,0.91589 1.25,2.05357 0,1.13768 -0.5575,2.05357 -1.25,2.05357 l -33.750001,0 c -0.6925,0 -1.249999,-0.91589 -1.249999,-2.05357 0,-1.13768 0.557499,-2.05357 1.249999,-2.05357 z m 0,-7.63395 33.750001,0 c 0.6925,0 1.25,0.9159 1.25,2.05358 0,1.13767 -0.5575,2.05357 -1.25,2.05357 l -33.750001,0 c -0.6925,0 -1.249999,-0.9159 -1.249999,-2.05357 0,-1.13768 0.557499,-2.05358 1.249999,-2.05358 z m -2.072794,-5.91207 37.895585,0 c 2.37429,0 4.28572,1.91142 4.28572,4.28571 l 0,37.89559 c 0,2.37429 -1.91143,4.28571 -4.28572,4.28571 l -37.895585,0 c -2.374286,0 -4.285714,-1.91142 -4.285714,-4.28571 l 0,-37.89559 c 0,-2.37429 1.911428,-4.28571 4.285714,-4.28571 z"
       inkscape:export-filename="/home/david/Projekt/kiss/cordova/www/img/menu.png"
       inkscape:export-xdpi="189"
       inkscape:export-ydpi="189" />
  </g>
</svg>
